<svg xmlns="http://www.w3.org/2000/svg" width="1440" height="900"><path d="M844,394L847,527L972,397Z" fill="#8e84bd" stroke="#8e84bd" stroke-width="1.51"/><path d="M847,527L988,515L972,397Z" fill="#8d77b6" stroke="#8d77b6" stroke-width="1.51"/><path d="M847,527L968,657L988,515Z" fill="#8c67ae" stroke="#8c67ae" stroke-width="1.51"/><path d="M726,523L847,631L847,527Z" fill="#8d77b6" stroke="#8d77b6" stroke-width="1.51"/><path d="M844,394L726,523L847,527Z" fill="#8d86be" stroke="#8d86be" stroke-width="1.51"/><path d="M847,631L968,657L847,527Z" fill="#8c65ad" stroke="#8c65ad" stroke-width="1.51"/><path d="M844,394L715,372L726,523Z" fill="#8e94c5" stroke="#8e94c5" stroke-width="1.51"/><path d="M849,246L715,372L844,394Z" fill="#969fcb" stroke="#969fcb" stroke-width="1.51"/><path d="M972,397L849,246L844,394Z" fill="#9693c5" stroke="#9693c5" stroke-width="1.51"/><path d="M988,515L1113,378L972,397Z" fill="#8f77b6" stroke="#8f77b6" stroke-width="1.51"/><path d="M972,397L969,244L849,246Z" fill="#9d94c6" stroke="#9d94c6" stroke-width="1.51"/><path d="M1111,645L1121,513L988,515Z" fill="#8b59a8" stroke="#8b59a8" stroke-width="1.51"/><path d="M1121,513L1113,378L988,515Z" fill="#8c6ab0" stroke="#8c6ab0" stroke-width="1.51"/><path d="M1113,378L969,244L972,397Z" fill="#9786bf" stroke="#9786bf" stroke-width="1.51"/><path d="M726,523L718,643L847,631Z" fill="#8d75b5" stroke="#8d75b5" stroke-width="1.51"/><path d="M847,631L850,770L968,657Z" fill="#8a57a6" stroke="#8a57a6" stroke-width="1.51"/><path d="M598,655L718,643L726,523Z" fill="#8f7db9" stroke="#8f7db9" stroke-width="1.51"/><path d="M968,657L1111,645L988,515Z" fill="#8b56a6" stroke="#8b56a6" stroke-width="1.51"/><path d="M720,134L720,247L849,246Z" fill="#a9b1d4" stroke="#a9b1d4" stroke-width="1.51"/><path d="M849,246L720,247L715,372Z" fill="#9da9d0" stroke="#9da9d0" stroke-width="1.51"/><path d="M1113,378L1112,248L969,244Z" fill="#9d86bf" stroke="#9d86bf" stroke-width="1.51"/><path d="M1234,389L1112,248L1113,378Z" fill="#9779b4" stroke="#9779b4" stroke-width="1.51"/><path d="M718,643L850,770L847,631Z" fill="#8c62ab" stroke="#8c62ab" stroke-width="1.51"/><path d="M968,657L1117,778L1111,645Z" fill="#88409b" stroke="#88409b" stroke-width="1.51"/><path d="M850,770L972,781L968,657Z" fill="#89499c" stroke="#89499c" stroke-width="1.51"/><path d="M969,244L861,131L849,246Z" fill="#a9a1cd" stroke="#a9a1cd" stroke-width="1.51"/><path d="M971,113L861,131L969,244Z" fill="#b0a1cd" stroke="#b0a1cd" stroke-width="1.51"/><path d="M602,246L584,383L715,372Z" fill="#9ab2d5" stroke="#9ab2d5" stroke-width="1.51"/><path d="M715,372L584,383L726,523Z" fill="#909eca" stroke="#909eca" stroke-width="1.51"/><path d="M1121,513L1234,389L1113,378Z" fill="#8f6aac" stroke="#8f6aac" stroke-width="1.51"/><path d="M1250,516L1234,389L1121,513Z" fill="#8c5da4" stroke="#8c5da4" stroke-width="1.51"/><path d="M584,383L577,520L726,523Z" fill="#919ac8" stroke="#919ac8" stroke-width="1.51"/><path d="M718,643L707,767L850,770Z" fill="#8c61a8" stroke="#8c61a8" stroke-width="1.51"/><path d="M1227,657L1250,516L1121,513Z" fill="#894b9c" stroke="#894b9c" stroke-width="1.51"/><path d="M1227,657L1121,513L1111,645Z" fill="#89489c" stroke="#89489c" stroke-width="1.51"/><path d="M1107,127L971,113L969,244Z" fill="#b098c9" stroke="#b098c9" stroke-width="1.51"/><path d="M577,520L598,655L726,523Z" fill="#9289c0" stroke="#9289c0" stroke-width="1.51"/><path d="M598,655L707,767L718,643Z" fill="#8f70b2" stroke="#8f70b2" stroke-width="1.51"/><path d="M850,770L977,897L972,781Z" fill="#813e8d" stroke="#813e8d" stroke-width="1.51"/><path d="M720,247L602,246L715,372Z" fill="#9fb2d5" stroke="#9fb2d5" stroke-width="1.51"/><path d="M720,134L602,246L720,247Z" fill="#aabad9" stroke="#aabad9" stroke-width="1.51"/><path d="M861,131L720,134L849,246Z" fill="#aeafd4" stroke="#aeafd4" stroke-width="1.51"/><path d="M726,-1L720,134L861,131Z" fill="#b9bbdb" stroke="#b9bbdb" stroke-width="1.51"/><path d="M1117,778L1227,657L1111,645Z" fill="#873694" stroke="#873694" stroke-width="1.51"/><path d="M972,781L1117,778L968,657Z" fill="#883e97" stroke="#883e97" stroke-width="1.51"/><path d="M1112,248L1107,127L969,244Z" fill="#a98ec3" stroke="#a98ec3" stroke-width="1.51"/><path d="M1243,243L1107,127L1112,248Z" fill="#a985bb" stroke="#a985bb" stroke-width="1.51"/><path d="M1234,389L1243,243L1112,248Z" fill="#9d79b3" stroke="#9d79b3" stroke-width="1.51"/><path d="M1373,389L1243,243L1234,389Z" fill="#926da6" stroke="#926da6" stroke-width="1.51"/><path d="M598,655L602,768L707,767Z" fill="#916eae" stroke="#916eae" stroke-width="1.51"/><path d="M846,915L977,897L850,770Z" fill="#773f86" stroke="#773f86" stroke-width="1.51"/><path d="M458,784L602,768L598,655Z" fill="#9676b1" stroke="#9676b1" stroke-width="1.51"/><path d="M972,781L977,897L1117,778Z" fill="#7f3288" stroke="#7f3288" stroke-width="1.51"/><path d="M846,915L850,770L716,900Z" fill="#784a8a" stroke="#784a8a" stroke-width="1.51"/><path d="M455,265L463,379L584,383Z" fill="#a1bddb" stroke="#a1bddb" stroke-width="1.51"/><path d="M584,383L463,379L577,520Z" fill="#97add2" stroke="#97add2" stroke-width="1.51"/><path d="M720,134L593,138L602,246Z" fill="#b1c3de" stroke="#b1c3de" stroke-width="1.51"/><path d="M726,-1L593,138L720,134Z" fill="#bbc6e0" stroke="#bbc6e0" stroke-width="1.51"/><path d="M455,265L584,383L602,246Z" fill="#a4bfdc" stroke="#a4bfdc" stroke-width="1.51"/><path d="M577,520L459,636L598,655Z" fill="#978cc1" stroke="#978cc1" stroke-width="1.51"/><path d="M1250,516L1357,510L1234,389Z" fill="#88579b" stroke="#88579b" stroke-width="1.51"/><path d="M1358,643L1357,510L1250,516Z" fill="#7f428e" stroke="#7f428e" stroke-width="1.51"/><path d="M463,379L456,515L577,520Z" fill="#99a7cf" stroke="#99a7cf" stroke-width="1.51"/><path d="M1117,778L1250,761L1227,657Z" fill="#852989" stroke="#852989" stroke-width="1.51"/><path d="M1227,657L1358,643L1250,516Z" fill="#843b90" stroke="#843b90" stroke-width="1.51"/><path d="M1241,909L1250,761L1117,778Z" fill="#7b197a" stroke="#7b197a" stroke-width="1.51"/><path d="M716,900L850,770L707,767Z" fill="#855599" stroke="#855599" stroke-width="1.51"/><path d="M971,113L860,-9L861,131Z" fill="#baadd4" stroke="#baadd4" stroke-width="1.51"/><path d="M974,-15L860,-9L971,113Z" fill="#bfacd4" stroke="#bfacd4" stroke-width="1.51"/><path d="M1357,510L1373,389L1234,389Z" fill="#845c99" stroke="#845c99" stroke-width="1.51"/><path d="M1119,0L974,-15L971,113Z" fill="#bea1ce" stroke="#bea1ce" stroke-width="1.51"/><path d="M1119,0L971,113L1107,127Z" fill="#b99acb" stroke="#b99acb" stroke-width="1.51"/><path d="M602,768L716,900L707,767Z" fill="#885e9d" stroke="#885e9d" stroke-width="1.51"/><path d="M456,515L459,636L577,520Z" fill="#9a97c7" stroke="#9a97c7" stroke-width="1.51"/><path d="M602,768L586,901L716,900Z" fill="#805e95" stroke="#805e95" stroke-width="1.51"/><path d="M1243,243L1244,115L1107,127Z" fill="#af86ba" stroke="#af86ba" stroke-width="1.51"/><path d="M1370,136L1244,115L1243,243Z" fill="#a97eb0" stroke="#a97eb0" stroke-width="1.51"/><path d="M1241,909L1117,895L1114,1030Z" fill="#68196c" stroke="#68196c" stroke-width="1.51"/><path d="M977,897L1117,895L1117,778Z" fill="#74287d" stroke="#74287d" stroke-width="1.51"/><path d="M1250,761L1358,643L1227,657Z" fill="#812988" stroke="#812988" stroke-width="1.51"/><path d="M1496,503L1486,390L1373,389Z" fill="#725488" stroke="#725488" stroke-width="1.51"/><path d="M321,390L321,509L456,515Z" fill="#a5afd4" stroke="#a5afd4" stroke-width="1.51"/><path d="M593,138L455,265L602,246Z" fill="#b0c7e0" stroke="#b0c7e0" stroke-width="1.51"/><path d="M860,-9L726,-1L861,131Z" fill="#beb9da" stroke="#beb9da" stroke-width="1.51"/><path d="M593,138L460,124L455,265Z" fill="#b9cfe4" stroke="#b9cfe4" stroke-width="1.51"/><path d="M1244,115L1119,0L1107,127Z" fill="#b991c2" stroke="#b991c2" stroke-width="1.51"/><path d="M1373,389L1380,252L1243,243Z" fill="#916ea2" stroke="#916ea2" stroke-width="1.51"/><path d="M458,784L586,901L602,768Z" fill="#8e6ba2" stroke="#8e6ba2" stroke-width="1.51"/><path d="M848,1045L979,1036L846,915Z" fill="#6d3b7d" stroke="#6d3b7d" stroke-width="1.51"/><path d="M338,656L458,784L459,636Z" fill="#a184bd" stroke="#a184bd" stroke-width="1.51"/><path d="M459,636L458,784L598,655Z" fill="#997fba" stroke="#997fba" stroke-width="1.51"/><path d="M596,-15L460,124L593,138Z" fill="#c2d5e8" stroke="#c2d5e8" stroke-width="1.51"/><path d="M1250,761L1372,784L1358,643Z" fill="#791d7b" stroke="#791d7b" stroke-width="1.51"/><path d="M1117,895L1241,909L1117,778Z" fill="#721c75" stroke="#721c75" stroke-width="1.51"/><path d="M1114,1030L1117,895L977,897Z" fill="#6a2573" stroke="#6a2573" stroke-width="1.51"/><path d="M1380,252L1370,136L1243,243Z" fill="#9c76a6" stroke="#9c76a6" stroke-width="1.51"/><path d="M1244,115L1249,-12L1119,0Z" fill="#bd8fbf" stroke="#bd8fbf" stroke-width="1.51"/><path d="M838,-136L726,-1L860,-9Z" fill="#c2bddc" stroke="#c2bddc" stroke-width="1.51"/><path d="M711,-131L596,-15L726,-1Z" fill="#c4cce4" stroke="#c4cce4" stroke-width="1.51"/><path d="M726,-1L596,-15L593,138Z" fill="#c2cee4" stroke="#c2cee4" stroke-width="1.51"/><path d="M1496,503L1373,389L1357,510Z" fill="#744f89" stroke="#744f89" stroke-width="1.51"/><path d="M1373,389L1486,390L1380,252Z" fill="#7d6393" stroke="#7d6393" stroke-width="1.51"/><path d="M1365,891L1372,784L1250,761Z" fill="#71096d" stroke="#71096d" stroke-width="1.51"/><path d="M846,915L979,1036L977,897Z" fill="#6d367a" stroke="#6d367a" stroke-width="1.51"/><path d="M848,1045L846,915L710,1040Z" fill="#6f4681" stroke="#6f4681" stroke-width="1.51"/><path d="M1374,-13L1249,-12L1244,115Z" fill="#b888b6" stroke="#b888b6" stroke-width="1.51"/><path d="M1119,0L986,-122L974,-15Z" fill="#c2a3d0" stroke="#c2a3d0" stroke-width="1.51"/><path d="M1496,503L1357,510L1358,643Z" fill="#733e83" stroke="#733e83" stroke-width="1.51"/><path d="M1380,252L1507,242L1370,136Z" fill="#8e6f99" stroke="#8e6f99" stroke-width="1.51"/><path d="M974,-15L986,-122L860,-9Z" fill="#c2add5" stroke="#c2add5" stroke-width="1.51"/><path d="M1119,-131L986,-122L1119,0Z" fill="#c19ecd" stroke="#c19ecd" stroke-width="1.51"/><path d="M456,515L338,656L459,636Z" fill="#a294c6" stroke="#a294c6" stroke-width="1.51"/><path d="M321,390L456,515L463,379Z" fill="#a3b4d6" stroke="#a3b4d6" stroke-width="1.51"/><path d="M321,390L463,379L455,265Z" fill="#a9c3de" stroke="#a9c3de" stroke-width="1.51"/><path d="M710,1040L846,915L716,900Z" fill="#704b84" stroke="#704b84" stroke-width="1.51"/><path d="M326,247L321,390L455,265Z" fill="#b4cae2" stroke="#b4cae2" stroke-width="1.51"/><path d="M1504,651L1496,503L1358,643Z" fill="#6c3379" stroke="#6c3379" stroke-width="1.51"/><path d="M986,-122L838,-136L860,-9Z" fill="#c2b2d7" stroke="#c2b2d7" stroke-width="1.51"/><path d="M321,509L338,656L456,515Z" fill="#a59ecb" stroke="#a59ecb" stroke-width="1.51"/><path d="M1246,1038L1114,1030L979,1036Z" fill="#6a1f70" stroke="#6a1f70" stroke-width="1.51"/><path d="M979,1036L1114,1030L977,897Z" fill="#6b2b76" stroke="#6b2b76" stroke-width="1.51"/><path d="M590,1035L716,900L586,901Z" fill="#75598b" stroke="#75598b" stroke-width="1.51"/><path d="M590,1035L710,1040L716,900Z" fill="#735588" stroke="#735588" stroke-width="1.51"/><path d="M319,129L326,247L460,124Z" fill="#c7d9e9" stroke="#c7d9e9" stroke-width="1.51"/><path d="M460,124L326,247L455,265Z" fill="#bcd1e5" stroke="#bcd1e5" stroke-width="1.51"/><path d="M838,-136L711,-131L726,-1Z" fill="#c2c3df" stroke="#c2c3df" stroke-width="1.51"/><path d="M596,-15L457,-10L460,124Z" fill="#cbdceb" stroke="#cbdceb" stroke-width="1.51"/><path d="M1230,-122L1119,-131L1119,0Z" fill="#c196c5" stroke="#c196c5" stroke-width="1.51"/><path d="M986,-122L1119,-131L838,-136Z" fill="#c2a9d2" stroke="#c2a9d2" stroke-width="1.51"/><path d="M1502,760L1504,651L1358,643Z" fill="#6a2171" stroke="#6a2171" stroke-width="1.51"/><path d="M1357,1032L1365,891L1241,909Z" fill="#5e035b" stroke="#5e035b" stroke-width="1.51"/><path d="M1241,909L1365,891L1250,761Z" fill="#6d086a" stroke="#6d086a" stroke-width="1.51"/><path d="M1372,784L1502,760L1358,643Z" fill="#6d196f" stroke="#6d196f" stroke-width="1.51"/><path d="M458,784L454,903L586,901Z" fill="#87699a" stroke="#87699a" stroke-width="1.51"/><path d="M343,780L454,903L458,784Z" fill="#9772a5" stroke="#9772a5" stroke-width="1.51"/><path d="M1370,136L1374,-13L1244,115Z" fill="#ac82ae" stroke="#ac82ae" stroke-width="1.51"/><path d="M1486,390L1507,242L1380,252Z" fill="#806692" stroke="#806692" stroke-width="1.51"/><path d="M1615,379L1507,242L1486,390Z" fill="#7a628f" stroke="#7a628f" stroke-width="1.51"/><path d="M1615,379L1486,390L1496,503Z" fill="#725488" stroke="#725488" stroke-width="1.51"/><path d="M210,770L343,780L338,656Z" fill="#ac86ba" stroke="#ac86ba" stroke-width="1.51"/><path d="M338,656L343,780L458,784Z" fill="#a480b7" stroke="#a480b7" stroke-width="1.51"/><path d="M579,-146L457,-10L596,-15Z" fill="#cbdbec" stroke="#cbdbec" stroke-width="1.51"/><path d="M454,903L590,1035L586,901Z" fill="#7a628f" stroke="#7a628f" stroke-width="1.51"/><path d="M1249,-12L1230,-122L1119,0Z" fill="#c092c1" stroke="#c092c1" stroke-width="1.51"/><path d="M1492,-12L1374,-13L1370,136Z" fill="#a37ea3" stroke="#a37ea3" stroke-width="1.51"/><path d="M1376,-143L1230,-122L1249,-12Z" fill="#bc8ab7" stroke="#bc8ab7" stroke-width="1.51"/><path d="M1499,917L1502,760L1372,784Z" fill="#5f035c" stroke="#5f035c" stroke-width="1.51"/><path d="M1365,891L1499,917L1372,784Z" fill="#590256" stroke="#590256" stroke-width="1.51"/><path d="M1114,1030L1246,1038L1241,909Z" fill="#681268" stroke="#681268" stroke-width="1.51"/><path d="M848,1045L1246,1038L979,1036Z" fill="#6b2b76" stroke="#6b2b76" stroke-width="1.51"/><path d="M457,-10L319,129L460,124Z" fill="#cedeed" stroke="#cedeed" stroke-width="1.51"/><path d="M196,253L212,398L321,390Z" fill="#b9cee3" stroke="#b9cee3" stroke-width="1.51"/><path d="M321,390L212,398L321,509Z" fill="#aebcda" stroke="#aebcda" stroke-width="1.51"/><path d="M1507,242L1506,133L1370,136Z" fill="#907298" stroke="#907298" stroke-width="1.51"/><path d="M711,-131L579,-146L596,-15Z" fill="#c6d2e6" stroke="#c6d2e6" stroke-width="1.51"/><path d="M457,-10L320,-14L319,129Z" fill="#d7e4f0" stroke="#d7e4f0" stroke-width="1.51"/><path d="M838,-136L579,-146L711,-131Z" fill="#c2c9e2" stroke="#c2c9e2" stroke-width="1.51"/><path d="M1376,-143L579,-146L838,-136Z" fill="#c2aed5" stroke="#c2aed5" stroke-width="1.51"/><path d="M196,253L321,390L326,247Z" fill="#bcd1e5" stroke="#bcd1e5" stroke-width="1.51"/><path d="M321,509L212,634L338,656Z" fill="#ad9dca" stroke="#ad9dca" stroke-width="1.51"/><path d="M212,398L195,503L321,509Z" fill="#b1b8d8" stroke="#b1b8d8" stroke-width="1.51"/><path d="M1631,521L1496,503L1504,651Z" fill="#6d3b7d" stroke="#6d3b7d" stroke-width="1.51"/><path d="M1631,521L1615,379L1496,503Z" fill="#6f4d85" stroke="#6f4d85" stroke-width="1.51"/><path d="M1507,242L1628,254L1506,133Z" fill="#8b6e96" stroke="#8b6e96" stroke-width="1.51"/><path d="M195,503L212,634L321,509Z" fill="#b1a8d1" stroke="#b1a8d1" stroke-width="1.51"/><path d="M1632,647L1631,521L1504,651Z" fill="#6c3178" stroke="#6c3178" stroke-width="1.51"/><path d="M1246,1038L1357,1032L1241,909Z" fill="#640560" stroke="#640560" stroke-width="1.51"/><path d="M1502,760L1632,647L1504,651Z" fill="#6a2171" stroke="#6a2171" stroke-width="1.51"/><path d="M454,903L453,1043L590,1035Z" fill="#7d6491" stroke="#7d6491" stroke-width="1.51"/><path d="M343,780L328,908L454,903Z" fill="#90709d" stroke="#90709d" stroke-width="1.51"/><path d="M210,770L328,908L343,780Z" fill="#a37aab" stroke="#a37aab" stroke-width="1.51"/><path d="M328,908L453,1043L454,903Z" fill="#846994" stroke="#846994" stroke-width="1.51"/><path d="M590,1035L453,1043L710,1040Z" fill="#785e8d" stroke="#785e8d" stroke-width="1.51"/><path d="M710,1040L453,1043L848,1045Z" fill="#735589" stroke="#735589" stroke-width="1.51"/><path d="M212,398L81,515L195,503Z" fill="#b7bddb" stroke="#b7bddb" stroke-width="1.51"/><path d="M205,131L196,253L326,247Z" fill="#ccdcec" stroke="#ccdcec" stroke-width="1.51"/><path d="M205,131L326,247L319,129Z" fill="#cedeec" stroke="#cedeec" stroke-width="1.51"/><path d="M579,-146L447,-131L457,-10Z" fill="#cfdfed" stroke="#cfdfed" stroke-width="1.51"/><path d="M1485,1030L1499,917L1365,891Z" fill="#4d004b" stroke="#4d004b" stroke-width="1.51"/><path d="M1638,767L1632,647L1502,760Z" fill="#68196c" stroke="#68196c" stroke-width="1.51"/><path d="M1748,383L1628,254L1615,379Z" fill="#7a628f" stroke="#7a628f" stroke-width="1.51"/><path d="M1615,379L1628,254L1507,242Z" fill="#806692" stroke="#806692" stroke-width="1.51"/><path d="M1506,133L1492,-12L1370,136Z" fill="#9a799d" stroke="#9a799d" stroke-width="1.51"/><path d="M1615,-16L1492,-12L1506,133Z" fill="#9f7c9f" stroke="#9f7c9f" stroke-width="1.51"/><path d="M1374,-13L1376,-143L1249,-12Z" fill="#b386b0" stroke="#b386b0" stroke-width="1.51"/><path d="M338,-122L320,-14L457,-10Z" fill="#dae6f1" stroke="#dae6f1" stroke-width="1.51"/><path d="M68,657L210,770L212,634Z" fill="#b795c7" stroke="#b795c7" stroke-width="1.51"/><path d="M212,634L210,770L338,656Z" fill="#b090c4" stroke="#b090c4" stroke-width="1.51"/><path d="M1119,-131L1376,-143L838,-136Z" fill="#c19aca" stroke="#c19aca" stroke-width="1.51"/><path d="M1230,-122L1376,-143L1119,-131Z" fill="#c08ebd" stroke="#c08ebd" stroke-width="1.51"/><path d="M1486,-130L1376,-143L1374,-13Z" fill="#a780a4" stroke="#a780a4" stroke-width="1.51"/><path d="M200,-1L205,131L319,129Z" fill="#dde9f2" stroke="#dde9f2" stroke-width="1.51"/><path d="M1635,891L1638,767L1502,760Z" fill="#62055f" stroke="#62055f" stroke-width="1.51"/><path d="M1632,647L1745,519L1631,521Z" fill="#6d3a7c" stroke="#6d3a7c" stroke-width="1.51"/><path d="M1748,249L1631,116L1628,254Z" fill="#8b6e96" stroke="#8b6e96" stroke-width="1.51"/><path d="M1492,-12L1486,-130L1374,-13Z" fill="#a27ea0" stroke="#a27ea0" stroke-width="1.51"/><path d="M1628,254L1631,116L1506,133Z" fill="#907298" stroke="#907298" stroke-width="1.51"/><path d="M1748,383L1615,379L1631,521Z" fill="#725388" stroke="#725388" stroke-width="1.51"/><path d="M1357,1032L1485,1030L1365,891Z" fill="#520150" stroke="#520150" stroke-width="1.51"/><path d="M1499,917L1635,891L1502,760Z" fill="#570254" stroke="#570254" stroke-width="1.51"/><path d="M1752,1046L1485,1030L1357,1032Z" fill="#4d004b" stroke="#4d004b" stroke-width="1.51"/><path d="M320,-14L200,-1L319,129Z" fill="#dfeaf3" stroke="#dfeaf3" stroke-width="1.51"/><path d="M447,-131L338,-122L457,-10Z" fill="#d6e4ef" stroke="#d6e4ef" stroke-width="1.51"/><path d="M196,-134L338,-122L447,-131Z" fill="#deeaf3" stroke="#deeaf3" stroke-width="1.51"/><path d="M197,908L319,1039L328,908Z" fill="#8f7198" stroke="#8f7198" stroke-width="1.51"/><path d="M328,908L319,1039L453,1043Z" fill="#886c95" stroke="#886c95" stroke-width="1.51"/><path d="M1615,-16L1486,-130L1492,-12Z" fill="#a27ea0" stroke="#a27ea0" stroke-width="1.51"/><path d="M195,503L81,515L212,634Z" fill="#b7aed4" stroke="#b7aed4" stroke-width="1.51"/><path d="M210,770L197,908L328,908Z" fill="#9c78a2" stroke="#9c78a2" stroke-width="1.51"/><path d="M63,377L81,515L212,398Z" fill="#bcc6e0" stroke="#bcc6e0" stroke-width="1.51"/><path d="M63,377L212,398L196,253Z" fill="#c0d4e7" stroke="#c0d4e7" stroke-width="1.51"/><path d="M63,782L197,908L210,770Z" fill="#ae82af" stroke="#ae82af" stroke-width="1.51"/><path d="M1749,657L1745,519L1632,647Z" fill="#6c3178" stroke="#6c3178" stroke-width="1.51"/><path d="M77,261L63,377L196,253Z" fill="#cadbea" stroke="#cadbea" stroke-width="1.51"/><path d="M196,-134L200,-1L320,-14Z" fill="#e6f0f6" stroke="#e6f0f6" stroke-width="1.51"/><path d="M1745,519L1748,383L1631,521Z" fill="#704c84" stroke="#704c84" stroke-width="1.51"/><path d="M1638,767L1749,657L1632,647Z" fill="#6a2070" stroke="#6a2070" stroke-width="1.51"/><path d="M1616,1019L1635,891L1499,917Z" fill="#4d004b" stroke="#4d004b" stroke-width="1.51"/><path d="M77,261L196,253L205,131Z" fill="#d3e1ee" stroke="#d3e1ee" stroke-width="1.51"/><path d="M62,125L77,261L205,131Z" fill="#dbe8f2" stroke="#dbe8f2" stroke-width="1.51"/><path d="M1631,116L1615,-16L1506,133Z" fill="#9b799d" stroke="#9b799d" stroke-width="1.51"/><path d="M1749,6L1615,-16L1631,116Z" fill="#9f7c9f" stroke="#9f7c9f" stroke-width="1.51"/><path d="M81,515L68,657L212,634Z" fill="#baa5d0" stroke="#baa5d0" stroke-width="1.51"/><path d="M-46,644L68,657L81,515Z" fill="#c0a9d2" stroke="#c0a9d2" stroke-width="1.51"/><path d="M1766,786L1749,657L1638,767Z" fill="#68166a" stroke="#68166a" stroke-width="1.51"/><path d="M1745,519L1766,786L1748,383Z" fill="#6d3a7c" stroke="#6d3a7c" stroke-width="1.51"/><path d="M1768,-131L1748,249L1748,383Z" fill="#907298" stroke="#907298" stroke-width="1.51"/><path d="M1748,383L1748,249L1628,254Z" fill="#7f6692" stroke="#7f6692" stroke-width="1.51"/><path d="M68,657L63,782L210,770Z" fill="#ba8fc0" stroke="#ba8fc0" stroke-width="1.51"/><path d="M197,908L196,1031L319,1039Z" fill="#93749a" stroke="#93749a" stroke-width="1.51"/><path d="M-66,764L63,782L68,657Z" fill="#bf93c3" stroke="#bf93c3" stroke-width="1.51"/><path d="M1485,1030L1616,1019L1499,917Z" fill="#4d004b" stroke="#4d004b" stroke-width="1.51"/><path d="M1635,891L1766,786L1638,767Z" fill="#60045d" stroke="#60045d" stroke-width="1.51"/><path d="M1748,249L1746,114L1631,116Z" fill="#917299" stroke="#917299" stroke-width="1.51"/><path d="M63,377L-45,391L81,515Z" fill="#c2cae2" stroke="#c2cae2" stroke-width="1.51"/><path d="M-66,258L-45,391L63,377Z" fill="#cadaeb" stroke="#cadaeb" stroke-width="1.51"/><path d="M200,-1L62,125L205,131Z" fill="#e5eff6" stroke="#e5eff6" stroke-width="1.51"/><path d="M79,908L196,1031L197,908Z" fill="#99789c" stroke="#99789c" stroke-width="1.51"/><path d="M1768,914L1766,786L1635,891Z" fill="#550152" stroke="#550152" stroke-width="1.51"/><path d="M1749,657L1766,786L1745,519Z" fill="#6b2775" stroke="#6b2775" stroke-width="1.51"/><path d="M1768,-131L1749,6L1746,114Z" fill="#a27ea0" stroke="#a27ea0" stroke-width="1.51"/><path d="M200,-1L70,-10L62,125Z" fill="#ecf4f8" stroke="#ecf4f8" stroke-width="1.51"/><path d="M338,-122L196,-134L320,-14Z" fill="#e2ecf4" stroke="#e2ecf4" stroke-width="1.51"/><path d="M579,-146L196,-134L447,-131Z" fill="#d7e4f0" stroke="#d7e4f0" stroke-width="1.51"/><path d="M1768,-131L1629,-144L1615,-16Z" fill="#a27ea0" stroke="#a27ea0" stroke-width="1.51"/><path d="M1615,-16L1629,-144L1486,-130Z" fill="#a27ea0" stroke="#a27ea0" stroke-width="1.51"/><path d="M1486,-130L1629,-144L1376,-143Z" fill="#a27ea0" stroke="#a27ea0" stroke-width="1.51"/><path d="M1376,-143L1629,-144L579,-146Z" fill="#c092c2" stroke="#c092c2" stroke-width="1.51"/><path d="M63,782L79,908L197,908Z" fill="#a47ea5" stroke="#a47ea5" stroke-width="1.51"/><path d="M-66,258L63,377L77,261Z" fill="#cfdfed" stroke="#cfdfed" stroke-width="1.51"/><path d="M63,782L-51,909L79,908Z" fill="#a981a7" stroke="#a981a7" stroke-width="1.51"/><path d="M1746,114L1749,6L1631,116Z" fill="#9b799d" stroke="#9b799d" stroke-width="1.51"/><path d="M1768,-131L1746,114L1748,249Z" fill="#9b799d" stroke="#9b799d" stroke-width="1.51"/><path d="M196,-134L70,-10L200,-1Z" fill="#edf5f9" stroke="#edf5f9" stroke-width="1.51"/><path d="M62,125L-66,258L77,261Z" fill="#dbe7f1" stroke="#dbe7f1" stroke-width="1.51"/><path d="M-45,391L-59,522L81,515Z" fill="#c2c2df" stroke="#c2c2df" stroke-width="1.51"/><path d="M-59,522L-46,644L81,515Z" fill="#c2b2d7" stroke="#c2b2d7" stroke-width="1.51"/><path d="M1616,1019L1768,914L1635,891Z" fill="#4d004b" stroke="#4d004b" stroke-width="1.51"/><path d="M-45,391L-179,509L-59,522Z" fill="#c2c3df" stroke="#c2c3df" stroke-width="1.51"/><path d="M-52,120L-66,258L62,125Z" fill="#e4eef5" stroke="#e4eef5" stroke-width="1.51"/><path d="M79,908L75,1043L196,1031Z" fill="#9b7a9d" stroke="#9b7a9d" stroke-width="1.51"/><path d="M196,1031L75,1043L319,1039Z" fill="#96769b" stroke="#96769b" stroke-width="1.51"/><path d="M319,1039L75,1043L453,1043Z" fill="#8f7198" stroke="#8f7198" stroke-width="1.51"/><path d="M453,1043L75,1043L848,1045Z" fill="#806792" stroke="#806792" stroke-width="1.51"/><path d="M-51,909L75,1043L79,908Z" fill="#a07d9f" stroke="#a07d9f" stroke-width="1.51"/><path d="M70,-10L-52,120L62,125Z" fill="#eef5f9" stroke="#eef5f9" stroke-width="1.51"/><path d="M-46,644L-66,764L68,657Z" fill="#c19bcb" stroke="#c19bcb" stroke-width="1.51"/><path d="M-178,651L-66,764L-46,644Z" fill="#c19ccb" stroke="#c19ccb" stroke-width="1.51"/><path d="M-178,651L-46,644L-59,522Z" fill="#c2aad3" stroke="#c2aad3" stroke-width="1.51"/><path d="M1616,1019L1752,1046L1768,914Z" fill="#4d004b" stroke="#4d004b" stroke-width="1.51"/><path d="M1485,1030L1752,1046L1616,1019Z" fill="#4d004b" stroke="#4d004b" stroke-width="1.51"/><path d="M1246,1038L1752,1046L1357,1032Z" fill="#4d004b" stroke="#4d004b" stroke-width="1.51"/><path d="M848,1045L1752,1046L1246,1038Z" fill="#630560" stroke="#630560" stroke-width="1.51"/><path d="M70,-10L-59,-11L-52,120Z" fill="#f3f9fb" stroke="#f3f9fb" stroke-width="1.51"/><path d="M196,-134L65,-140L70,-10Z" fill="#f0f7fa" stroke="#f0f7fa" stroke-width="1.51"/><path d="M579,-146L65,-140L196,-134Z" fill="#e3edf4" stroke="#e3edf4" stroke-width="1.51"/><path d="M1749,6L1768,-131L1615,-16Z" fill="#a27ea0" stroke="#a27ea0" stroke-width="1.51"/><path d="M1766,786L1768,-131L1748,383Z" fill="#79618f" stroke="#79618f" stroke-width="1.51"/><path d="M1768,914L1768,-131L1766,786Z" fill="#6e427f" stroke="#6e427f" stroke-width="1.51"/><path d="M-66,764L-51,909L63,782Z" fill="#b788b4" stroke="#b788b4" stroke-width="1.51"/><path d="M-57,-124L-59,-11L70,-10Z" fill="#f7fcfd" stroke="#f7fcfd" stroke-width="1.51"/><path d="M-199,385L-45,391L-66,258Z" fill="#cadaeb" stroke="#cadaeb" stroke-width="1.51"/><path d="M-66,764L-192,908L-51,909Z" fill="#ac83aa" stroke="#ac83aa" stroke-width="1.51"/><path d="M-199,385L-179,509L-45,391Z" fill="#c4cbe3" stroke="#c4cbe3" stroke-width="1.51"/><path d="M-199,385L-66,258L-190,250Z" fill="#d1e0ed" stroke="#d1e0ed" stroke-width="1.51"/><path d="M-179,509L-178,651L-59,522Z" fill="#c2b2d7" stroke="#c2b2d7" stroke-width="1.51"/><path d="M-190,250L-66,258L-181,128Z" fill="#dde9f2" stroke="#dde9f2" stroke-width="1.51"/><path d="M-179,509L-199,385L-178,651Z" fill="#c2bbdb" stroke="#c2bbdb" stroke-width="1.51"/><path d="M-181,128L-66,258L-52,120Z" fill="#e4edf5" stroke="#e4edf5" stroke-width="1.51"/><path d="M-59,-11L-181,128L-52,120Z" fill="#eff6fa" stroke="#eff6fa" stroke-width="1.51"/><path d="M65,-140L-57,-124L70,-10Z" fill="#f6fbfd" stroke="#f6fbfd" stroke-width="1.51"/><path d="M-51,909L-68,1040L75,1043Z" fill="#a27ea0" stroke="#a27ea0" stroke-width="1.51"/><path d="M-192,908L-68,1040L-51,909Z" fill="#a27ea0" stroke="#a27ea0" stroke-width="1.51"/><path d="M-183,-17L-181,128L-59,-11Z" fill="#f3f9fb" stroke="#f3f9fb" stroke-width="1.51"/><path d="M-178,651L-198,785L-66,764Z" fill="#c095c4" stroke="#c095c4" stroke-width="1.51"/><path d="M-199,385L-198,785L-178,651Z" fill="#c2a9d3" stroke="#c2a9d3" stroke-width="1.51"/><path d="M-198,785L-192,908L-66,764Z" fill="#b788b4" stroke="#b788b4" stroke-width="1.51"/><path d="M-57,-124L-183,-17L-59,-11Z" fill="#f7fcfd" stroke="#f7fcfd" stroke-width="1.51"/><path d="M-181,128L-183,-17L-190,250Z" fill="#ebf3f8" stroke="#ebf3f8" stroke-width="1.51"/><path d="M-190,250L-185,-142L-199,385Z" fill="#e4eef5" stroke="#e4eef5" stroke-width="1.51"/><path d="M-68,1040L-175,1044L75,1043Z" fill="#a27ea0" stroke="#a27ea0" stroke-width="1.51"/><path d="M75,1043L-175,1044L848,1045Z" fill="#927399" stroke="#927399" stroke-width="1.51"/><path d="M848,1045L-175,1044L1752,1046Z" fill="#6f4581" stroke="#6f4581" stroke-width="1.51"/><path d="M-192,908L-175,1044L-68,1040Z" fill="#a27ea0" stroke="#a27ea0" stroke-width="1.51"/><path d="M-57,-124L-185,-142L-183,-17Z" fill="#f7fcfd" stroke="#f7fcfd" stroke-width="1.51"/><path d="M-183,-17L-185,-142L-190,250Z" fill="#f4fafc" stroke="#f4fafc" stroke-width="1.51"/><path d="M65,-140L-185,-142L-57,-124Z" fill="#f7fcfd" stroke="#f7fcfd" stroke-width="1.51"/><path d="M579,-146L-185,-142L65,-140Z" fill="#edf5f9" stroke="#edf5f9" stroke-width="1.51"/></svg>