<svg xmlns="http://www.w3.org/2000/svg" width="1440" height="900"><path d="M733,431L956,372L681,85Z" fill="#dcd3de" stroke="#dcd3de" stroke-width="1.51"/><path d="M956,372L1066,182L681,85Z" fill="#bcb7c0" stroke="#bcb7c0" stroke-width="1.51"/><path d="M1066,182L743,-45L681,85Z" fill="#a98aaa" stroke="#a98aaa" stroke-width="1.51"/><path d="M743,-45L500,122L681,85Z" fill="#a77eac" stroke="#a77eac" stroke-width="1.51"/><path d="M681,85L500,122L733,431Z" fill="#cbb2d3" stroke="#cbb2d3" stroke-width="1.51"/><path d="M1066,182L983,-199L743,-45Z" fill="#847382" stroke="#847382" stroke-width="1.51"/><path d="M1352,375L1208,73L1066,182Z" fill="#7e8f84" stroke="#7e8f84" stroke-width="1.51"/><path d="M1208,73L983,-199L1066,182Z" fill="#6e696c" stroke="#6e696c" stroke-width="1.51"/><path d="M500,122L414,533L733,431Z" fill="#e4d0e5" stroke="#e4d0e5" stroke-width="1.51"/><path d="M733,431L999,791L956,372Z" fill="#d5eecf" stroke="#d5eecf" stroke-width="1.51"/><path d="M456,662L655,760L733,431Z" fill="#cddec9" stroke="#cddec9" stroke-width="1.51"/><path d="M956,372L1352,375L1066,182Z" fill="#a2baa3" stroke="#a2baa3" stroke-width="1.51"/><path d="M414,533L456,662L733,431Z" fill="#dbdbda" stroke="#dbdbda" stroke-width="1.51"/><path d="M1208,73L1268,-52L983,-199Z" fill="#5a5c59" stroke="#5a5c59" stroke-width="1.51"/><path d="M1343,663L1352,375L956,372Z" fill="#9ac59c" stroke="#9ac59c" stroke-width="1.51"/><path d="M1208,73L1519,195L1268,-52Z" fill="#524e55" stroke="#524e55" stroke-width="1.51"/><path d="M655,760L999,791L733,431Z" fill="#bbe0b6" stroke="#bbe0b6" stroke-width="1.51"/><path d="M743,-45L345,-147L500,122Z" fill="#8c6293" stroke="#8c6293" stroke-width="1.51"/><path d="M500,122L143,83L414,533Z" fill="#b18fc0" stroke="#b18fc0" stroke-width="1.51"/><path d="M419,-341L345,-147L743,-45Z" fill="#895e90" stroke="#895e90" stroke-width="1.51"/><path d="M938,-484L691,-370L983,-199Z" fill="#8d778c" stroke="#8d778c" stroke-width="1.51"/><path d="M983,-199L691,-370L743,-45Z" fill="#937894" stroke="#937894" stroke-width="1.51"/><path d="M345,-147L143,83L500,122Z" fill="#784685" stroke="#784685" stroke-width="1.51"/><path d="M414,533L104,768L456,662Z" fill="#9fa7a3" stroke="#9fa7a3" stroke-width="1.51"/><path d="M999,791L1343,663L956,372Z" fill="#95cf92" stroke="#95cf92" stroke-width="1.51"/><path d="M345,-147L114,-127L143,83Z" fill="#61256e" stroke="#61256e" stroke-width="1.51"/><path d="M691,-370L419,-341L743,-45Z" fill="#956e98" stroke="#956e98" stroke-width="1.51"/><path d="M1352,375L1519,195L1208,73Z" fill="#677470" stroke="#677470" stroke-width="1.51"/><path d="M1523,456L1519,195L1352,375Z" fill="#748679" stroke="#748679" stroke-width="1.51"/><path d="M1268,-52L1249,-337L983,-199Z" fill="#575957" stroke="#575957" stroke-width="1.51"/><path d="M1663,-209L1249,-337L1268,-52Z" fill="#36343a" stroke="#36343a" stroke-width="1.51"/><path d="M1249,-337L938,-484L983,-199Z" fill="#6e696c" stroke="#6e696c" stroke-width="1.51"/><path d="M691,-370L94,-445L419,-341Z" fill="#7c4f87" stroke="#7c4f87" stroke-width="1.51"/><path d="M1343,663L1523,456L1352,375Z" fill="#799f7c" stroke="#799f7c" stroke-width="1.51"/><path d="M143,83L80,524L414,533Z" fill="#b993c0" stroke="#b993c0" stroke-width="1.51"/><path d="M520,1094L662,1090L655,760Z" fill="#798e7c" stroke="#798e7c" stroke-width="1.51"/><path d="M143,83L-162,459L80,524Z" fill="#956b9a" stroke="#956b9a" stroke-width="1.51"/><path d="M94,-445L114,-127L345,-147Z" fill="#5f216c" stroke="#5f216c" stroke-width="1.51"/><path d="M999,791L1379,972L1343,663Z" fill="#2a823f" stroke="#2a823f" stroke-width="1.51"/><path d="M1343,663L1597,729L1523,456Z" fill="#598e5d" stroke="#598e5d" stroke-width="1.51"/><path d="M662,1090L1096,1030L999,791Z" fill="#659268" stroke="#659268" stroke-width="1.51"/><path d="M662,1090L999,791L655,760Z" fill="#7b9f7f" stroke="#7b9f7f" stroke-width="1.51"/><path d="M520,1094L655,760L456,662Z" fill="#809884" stroke="#809884" stroke-width="1.51"/><path d="M80,524L104,768L414,533Z" fill="#a093a0" stroke="#a093a0" stroke-width="1.51"/><path d="M168,1050L520,1094L456,662Z" fill="#626c6a" stroke="#626c6a" stroke-width="1.51"/><path d="M1096,1030L1379,972L999,791Z" fill="#2e763b" stroke="#2e763b" stroke-width="1.51"/><path d="M1379,972L1597,729L1343,663Z" fill="#17642d" stroke="#17642d" stroke-width="1.51"/><path d="M1913,126L1663,-209L1519,195Z" fill="#3b343f" stroke="#3b343f" stroke-width="1.51"/><path d="M1249,-337L1670,-357L938,-484Z" fill="#434646" stroke="#434646" stroke-width="1.51"/><path d="M1519,195L1663,-209L1268,-52Z" fill="#312c35" stroke="#312c35" stroke-width="1.51"/><path d="M1913,126L1519,195L1523,456Z" fill="#65716e" stroke="#65716e" stroke-width="1.51"/><path d="M419,-341L94,-445L345,-147Z" fill="#6c3a79" stroke="#6c3a79" stroke-width="1.51"/><path d="M-213,140L-162,459L143,83Z" fill="#774882" stroke="#774882" stroke-width="1.51"/><path d="M938,-484L94,-445L691,-370Z" fill="#926996" stroke="#926996" stroke-width="1.51"/><path d="M-213,140L143,83L-216,-102Z" fill="#4c0957" stroke="#4c0957" stroke-width="1.51"/><path d="M80,524L-60,803L104,768Z" fill="#696768" stroke="#696768" stroke-width="1.51"/><path d="M1096,1030L1209,1288L1379,972Z" fill="#1f6932" stroke="#1f6932" stroke-width="1.51"/><path d="M662,1090L946,1308L1096,1030Z" fill="#68946b" stroke="#68946b" stroke-width="1.51"/><path d="M508,1242L712,1259L662,1090Z" fill="#79907d" stroke="#79907d" stroke-width="1.51"/><path d="M508,1242L662,1090L520,1094Z" fill="#76887a" stroke="#76887a" stroke-width="1.51"/><path d="M-216,-102L143,83L114,-127Z" fill="#42014d" stroke="#42014d" stroke-width="1.51"/><path d="M104,768L168,1050L456,662Z" fill="#606968" stroke="#606968" stroke-width="1.51"/><path d="M-60,803L168,1050L104,768Z" fill="#423d46" stroke="#423d46" stroke-width="1.51"/><path d="M-162,459L-60,803L80,524Z" fill="#81727f" stroke="#81727f" stroke-width="1.51"/><path d="M186,1224L508,1242L520,1094Z" fill="#64706d" stroke="#64706d" stroke-width="1.51"/><path d="M1663,-209L1670,-357L1249,-337Z" fill="#312c35" stroke="#312c35" stroke-width="1.51"/><path d="M712,1259L946,1308L662,1090Z" fill="#78987b" stroke="#78987b" stroke-width="1.51"/><path d="M677,1541L946,1308L712,1259Z" fill="#77987a" stroke="#77987a" stroke-width="1.51"/><path d="M-90,-417L-216,-102L114,-127Z" fill="#40004b" stroke="#40004b" stroke-width="1.51"/><path d="M94,-445L-90,-417L114,-127Z" fill="#470552" stroke="#470552" stroke-width="1.51"/><path d="M1938,509L1913,126L1523,456Z" fill="#788b7b" stroke="#788b7b" stroke-width="1.51"/><path d="M1663,-209L1806,-400L1670,-357Z" fill="#312c35" stroke="#312c35" stroke-width="1.51"/><path d="M946,1308L1209,1288L1096,1030Z" fill="#42814a" stroke="#42814a" stroke-width="1.51"/><path d="M1379,972L1605,1082L1597,729Z" fill="#00441b" stroke="#00441b" stroke-width="1.51"/><path d="M508,1242L677,1541L712,1259Z" fill="#79907d" stroke="#79907d" stroke-width="1.51"/><path d="M168,1050L186,1224L520,1094Z" fill="#575d61" stroke="#575d61" stroke-width="1.51"/><path d="M-93,1074L186,1224L168,1050Z" fill="#403744" stroke="#403744" stroke-width="1.51"/><path d="M1597,729L1938,509L1523,456Z" fill="#68936a" stroke="#68936a" stroke-width="1.51"/><path d="M1532,1332L1605,1082L1379,972Z" fill="#00441b" stroke="#00441b" stroke-width="1.51"/><path d="M1913,126L1909,-118L1663,-209Z" fill="#312c35" stroke="#312c35" stroke-width="1.51"/><path d="M1913,126L1938,509L1909,-118Z" fill="#555a5f" stroke="#555a5f" stroke-width="1.51"/><path d="M1949,654L1938,509L1597,729Z" fill="#558c5a" stroke="#558c5a" stroke-width="1.51"/><path d="M1909,-118L1806,-400L1663,-209Z" fill="#312c35" stroke="#312c35" stroke-width="1.51"/><path d="M1670,-357L1806,-400L938,-484Z" fill="#312c35" stroke="#312c35" stroke-width="1.51"/><path d="M1944,958L1949,654L1597,729Z" fill="#1a652f" stroke="#1a652f" stroke-width="1.51"/><path d="M1938,509L1949,654L1909,-118Z" fill="#758779" stroke="#758779" stroke-width="1.51"/><path d="M-428,685L-60,803L-162,459Z" fill="#726b70" stroke="#726b70" stroke-width="1.51"/><path d="M-484,978L-93,1074L-60,803Z" fill="#312c35" stroke="#312c35" stroke-width="1.51"/><path d="M-60,803L-93,1074L168,1050Z" fill="#322d36" stroke="#322d36" stroke-width="1.51"/><path d="M-213,140L-428,203L-162,459Z" fill="#80538a" stroke="#80538a" stroke-width="1.51"/><path d="M-457,-112L-428,203L-213,140Z" fill="#571263" stroke="#571263" stroke-width="1.51"/><path d="M-457,-112L-213,140L-216,-102Z" fill="#40004b" stroke="#40004b" stroke-width="1.51"/><path d="M-428,203L-474,447L-162,459Z" fill="#936b97" stroke="#936b97" stroke-width="1.51"/><path d="M454,1643L508,1242L119,1540Z" fill="#5f6868" stroke="#5f6868" stroke-width="1.51"/><path d="M454,1643L677,1541L508,1242Z" fill="#748679" stroke="#748679" stroke-width="1.51"/><path d="M1064,1659L1321,1516L1209,1288Z" fill="#256e36" stroke="#256e36" stroke-width="1.51"/><path d="M-474,447L-428,685L-162,459Z" fill="#8f788f" stroke="#8f788f" stroke-width="1.51"/><path d="M-428,203L-457,-112L-474,447Z" fill="#6c3a79" stroke="#6c3a79" stroke-width="1.51"/><path d="M-498,-371L-457,-112L-216,-102Z" fill="#40004b" stroke="#40004b" stroke-width="1.51"/><path d="M1605,1082L1944,958L1597,729Z" fill="#00441b" stroke="#00441b" stroke-width="1.51"/><path d="M1209,1288L1532,1332L1379,972Z" fill="#054f21" stroke="#054f21" stroke-width="1.51"/><path d="M1321,1516L1532,1332L1209,1288Z" fill="#065323" stroke="#065323" stroke-width="1.51"/><path d="M1807,1303L1944,958L1605,1082Z" fill="#00441b" stroke="#00441b" stroke-width="1.51"/><path d="M1064,1659L1209,1288L946,1308Z" fill="#45834c" stroke="#45834c" stroke-width="1.51"/><path d="M-90,-417L-498,-371L-216,-102Z" fill="#40004b" stroke="#40004b" stroke-width="1.51"/><path d="M-457,-112L-498,-371L-474,447Z" fill="#40004b" stroke="#40004b" stroke-width="1.51"/><path d="M94,-445L-498,-371L-90,-417Z" fill="#40004b" stroke="#40004b" stroke-width="1.51"/><path d="M677,1541L1064,1659L946,1308Z" fill="#69946c" stroke="#69946c" stroke-width="1.51"/><path d="M119,1540L508,1242L186,1224Z" fill="#55595e" stroke="#55595e" stroke-width="1.51"/><path d="M677,1541L454,1643L1064,1659Z" fill="#7c9980" stroke="#7c9980" stroke-width="1.51"/><path d="M1532,1332L1807,1303L1605,1082Z" fill="#00441b" stroke="#00441b" stroke-width="1.51"/><path d="M1627,1535L1807,1303L1532,1332Z" fill="#00441b" stroke="#00441b" stroke-width="1.51"/><path d="M1627,1535L1532,1332L1321,1516Z" fill="#00441b" stroke="#00441b" stroke-width="1.51"/><path d="M-215,1374L119,1540L186,1224Z" fill="#36303a" stroke="#36303a" stroke-width="1.51"/><path d="M-215,1374L186,1224L-93,1074Z" fill="#312c35" stroke="#312c35" stroke-width="1.51"/><path d="M-428,685L-484,978L-60,803Z" fill="#3f4142" stroke="#3f4142" stroke-width="1.51"/><path d="M-474,447L-484,978L-428,685Z" fill="#5f5f5e" stroke="#5f5f5e" stroke-width="1.51"/><path d="M-498,-371L-484,978L-474,447Z" fill="#906795" stroke="#906795" stroke-width="1.51"/><path d="M-390,1299L-215,1374L-93,1074Z" fill="#312c35" stroke="#312c35" stroke-width="1.51"/><path d="M1064,1659L1627,1535L1321,1516Z" fill="#085625" stroke="#085625" stroke-width="1.51"/><path d="M-215,1374L-184,1595L119,1540Z" fill="#312c35" stroke="#312c35" stroke-width="1.51"/><path d="M-484,978L-390,1299L-93,1074Z" fill="#312c35" stroke="#312c35" stroke-width="1.51"/><path d="M-487,1574L-184,1595L-215,1374Z" fill="#312c35" stroke="#312c35" stroke-width="1.51"/><path d="M119,1540L-184,1595L454,1643Z" fill="#473d4c" stroke="#473d4c" stroke-width="1.51"/><path d="M1627,1535L1840,1596L1807,1303Z" fill="#00441b" stroke="#00441b" stroke-width="1.51"/><path d="M1807,1303L1840,1596L1944,958Z" fill="#00441b" stroke="#00441b" stroke-width="1.51"/><path d="M1064,1659L1840,1596L1627,1535Z" fill="#00441b" stroke="#00441b" stroke-width="1.51"/><path d="M-390,1299L-487,1574L-215,1374Z" fill="#312c35" stroke="#312c35" stroke-width="1.51"/><path d="M-184,1595L-487,1574L454,1643Z" fill="#312c35" stroke="#312c35" stroke-width="1.51"/><path d="M-484,978L-487,1574L-390,1299Z" fill="#312c35" stroke="#312c35" stroke-width="1.51"/><path d="M-498,-371L-487,1574L-484,978Z" fill="#575a58" stroke="#575a58" stroke-width="1.51"/></svg>